<?xml version="1.0" encoding="UTF-8"?>
<svg width="187px" height="162px" viewBox="0 0 187 162" version="1.1" xmlns="http://www.w3.org/2000/svg" xmlns:xlink="http://www.w3.org/1999/xlink">
    <!-- Generator: Sketch 48.2 (47327) - http://www.bohemiancoding.com/sketch -->
    <title>Journey/Device/Desktop</title>
    <desc>Created with Sketch.</desc>
    <defs></defs>
    <g id="Symbols" stroke="none" stroke-width="1" fill="none" fill-rule="evenodd">
        <g id="Journey/Device/Desktop" fill="#005EB8">
            <path d="M174.533333,96.5769231 C174.533333,98.2319712 173.072396,99.6923077 171.416667,99.6923077 L15.5833333,99.6923077 C13.9276042,99.6923077 12.4666667,98.2319712 12.4666667,96.5769231 L12.4666667,15.5769231 C12.4666667,13.921875 13.9276042,12.4615385 15.5833333,12.4615385 L171.416667,12.4615385 C173.072396,12.4615385 174.533333,13.921875 174.533333,15.5769231 L174.533333,96.5769231 Z M187,15.5769231 C187,7.00961538 179.9875,0 171.416667,0 L15.5833333,0 C7.0125,0 0,7.00961538 0,15.5769231 L0,121.5 C0,130.067308 7.0125,137.076923 15.5833333,137.076923 L68.5666667,137.076923 C68.5666667,145.546875 62.3333333,152.167067 62.3333333,155.769231 C62.3333333,159.176683 65.1578125,162 68.5666667,162 L118.433333,162 C121.842188,162 124.666667,159.176683 124.666667,155.769231 C124.666667,152.361779 118.433333,145.352163 118.433333,137.076923 L171.416667,137.076923 C179.9875,137.076923 187,130.067308 187,121.5 L187,15.5769231 Z" id=""></path>
        </g>
    </g>
</svg>
