<?xml version="1.0" encoding="UTF-8"?>
<svg width="187px" height="162px" viewBox="0 0 187 162" version="1.1" xmlns="http://www.w3.org/2000/svg" xmlns:xlink="http://www.w3.org/1999/xlink">
    <!-- Generator: Sketch 48.2 (47327) - http://www.bohemiancoding.com/sketch -->
    <title>Tablet</title>
    <desc>Created with Sketch.</desc>
    <defs></defs>
    <g id="Symbols" stroke="none" stroke-width="1" fill="none" fill-rule="evenodd">
        <g id="Tablet" fill="#005EB8">
            <path d="M100.555556,147.909091 C100.555556,151.488636 97.5850694,154.454545 94,154.454545 C90.4149306,154.454545 87.4444444,151.488636 87.4444444,147.909091 C87.4444444,144.329545 90.4149306,141.363636 94,141.363636 C97.5850694,141.363636 100.555556,144.329545 100.555556,147.909091 L100.555556,147.909091 Z M139.888889,131.545455 C139.888889,133.284091 138.352431,134.818182 136.611111,134.818182 L51.3888889,134.818182 C49.6475694,134.818182 48.1111111,133.284091 48.1111111,131.545455 L48.1111111,33.3636364 C48.1111111,31.625 49.6475694,30.0909091 51.3888889,30.0909091 L136.611111,30.0909091 C138.352431,30.0909091 139.888889,31.625 139.888889,33.3636364 L139.888889,131.545455 Z M153,33.3636364 C153,24.3636364 145.625,17 136.611111,17 L51.3888889,17 C42.375,17 35,24.3636364 35,33.3636364 L35,144.636364 C35,153.636364 42.375,161 51.3888889,161 L136.611111,161 C145.625,161 153,153.636364 153,144.636364 L153,33.3636364 Z" id=""></path>
        </g>
    </g>
</svg>
