<?xml version="1.0" encoding="UTF-8"?>
<svg width="187px" height="162px" viewBox="0 0 187 162" version="1.1" xmlns="http://www.w3.org/2000/svg" xmlns:xlink="http://www.w3.org/1999/xlink">
    <!-- Generator: Sketch 48.2 (47327) - http://www.bohemiancoding.com/sketch -->
    <title>Mobile</title>
    <desc>Created with Sketch.</desc>
    <defs></defs>
    <g id="Symbols" stroke="none" stroke-width="1" fill="none" fill-rule="evenodd">
        <g id="Mobile" fill="#005EB8">
            <path d="M102.895833,150.2 C102.895833,154.25625 99.5677083,157.575 95.5,157.575 C91.4322917,157.575 88.1041667,154.25625 88.1041667,150.2 C88.1041667,146.14375 91.4322917,142.825 95.5,142.825 C99.5677083,142.825 102.895833,146.14375 102.895833,150.2 L102.895833,150.2 Z M122.125,135.45 C122.125,137.017187 120.738281,138.4 119.166667,138.4 L71.8333333,138.4 C70.2617188,138.4 68.875,137.017187 68.875,135.45 L68.875,70.55 C68.875,68.9828125 70.2617188,67.6 71.8333333,67.6 L119.166667,67.6 C120.738281,67.6 122.125,68.9828125 122.125,70.55 L122.125,135.45 Z M104.375,57.275 C104.375,58.1046875 103.727865,58.75 102.895833,58.75 L88.1041667,58.75 C87.2721354,58.75 86.625,58.1046875 86.625,57.275 C86.625,56.4453125 87.2721354,55.8 88.1041667,55.8 L102.895833,55.8 C103.727865,55.8 104.375,56.4453125 104.375,57.275 L104.375,57.275 Z M131,55.8 C131,49.346875 125.638021,44 119.166667,44 L71.8333333,44 C65.3619792,44 60,49.346875 60,55.8 L60,150.2 C60,156.653125 65.3619792,162 71.8333333,162 L119.166667,162 C125.638021,162 131,156.653125 131,150.2 L131,55.8 Z" id=""></path>
        </g>
    </g>
</svg>
