<?xml version="1.0" encoding="UTF-8"?>
<svg width="60px" height="60px" viewBox="0 0 60 60" version="1.1" xmlns="http://www.w3.org/2000/svg" xmlns:xlink="http://www.w3.org/1999/xlink">
    <!-- Generator: Sketch 48.2 (47327) - http://www.bohemiancoding.com/sketch -->
    <title>Artboard Copy 7</title>
    <desc>Created with Sketch.</desc>
    <defs></defs>
    <g id="Page-1" stroke="none" stroke-width="1" fill="none" fill-rule="evenodd">
        <g id="Artboard-Copy-7" fill="#333F48" fill-rule="nonzero">
            <g id="icon_need" transform="translate(-1.000000, 12.000000)">
                <path d="M31.0449494,35.25 L29.1712439,35.25 L29.1712439,32.0454546 L25.9591773,32.0454546 L25.9591773,30.1761363 L29.8404245,26.3039773 L34.9261966,31.3778409 L31.0449494,35.25 Z M45.7669215,11.2159091 C46.0680527,11.5163352 46.0345939,12.0170454 45.7334627,12.3174716 L34.0228029,24.0007102 C33.7216716,24.3011363 33.2197862,24.3345171 32.9186549,24.0340909 C32.6175237,23.7336648 32.6509828,23.2329546 32.952114,22.9325284 L44.6627736,11.2492898 C44.9639048,10.9488637 45.4657902,10.9154829 45.7669215,11.2159091 Z M48.4436438,31.0440341 C48.4436438,30.6100852 48.1759714,30.2428977 47.774463,30.0759943 C47.3729547,29.9090909 46.9379876,29.9758523 46.6033969,30.3096591 L44.4620194,32.4460227 C44.2612653,32.6463068 44.1608882,32.9133523 44.1608882,33.1803977 L44.1608882,37.3863637 C44.1608882,40.3238637 41.7518383,42.7272727 38.8074438,42.7272727 L10.9695332,42.7272727 C8.0251388,42.7272727 5.61608882,40.3238637 5.61608882,37.3863637 L5.61608882,9.61363634 C5.61608882,6.67613637 8.0251388,4.27272727 10.9695332,4.27272727 L38.8074438,4.27272727 C39.3093292,4.27272727 39.8112146,4.33948863 40.3130997,4.47301137 C40.6811492,4.60653409 41.0826575,4.50639204 41.3837887,4.20596591 L43.0232808,2.5703125 C43.2909533,2.30326704 43.3913303,1.96946023 43.3244128,1.60227273 C43.2574945,1.26846591 43.0232808,0.968039775 42.7221496,0.834517042 C41.4841658,0.267045454 40.145805,0 38.8074438,0 L10.9695332,0 C5.64954782,0 1.33333333,4.30610796 1.33333333,9.61363634 L1.33333333,37.3863637 C1.33333333,42.6938921 5.64954782,47 10.9695332,47 L38.8074438,47 C44.1274294,47 48.4436438,42.6938921 48.4436438,37.3863637 L48.4436438,31.0440341 Z M45.2315773,6.40909091 L22.7471107,28.8409091 L22.7471107,38.4545454 L32.3833105,38.4545454 L54.8677769,16.0227273 L45.2315773,6.40909091 Z M60.087385,10.8153409 C61.3253688,9.58025567 61.3253688,7.51065342 60.087385,6.27556818 L55.0016128,1.20170454 C53.763629,-0.0333806818 51.6891691,-0.0333806818 50.4511854,1.20170454 L47.3729547,4.27272727 L57.0091543,13.8863637 L60.087385,10.8153409 Z" id="ï„"></path>
            </g>
        </g>
    </g>
</svg>