<?xml version="1.0" encoding="UTF-8"?>
<svg width="60px" height="60px" viewBox="0 0 60 60" version="1.1" xmlns="http://www.w3.org/2000/svg" xmlns:xlink="http://www.w3.org/1999/xlink">
    <!-- Generator: Sketch 48.2 (47327) - http://www.bohemiancoding.com/sketch -->
    <title>Artboard Copy 3</title>
    <desc>Created with Sketch.</desc>
    <defs></defs>
    <g id="Page-1" stroke="none" stroke-width="1" fill="none" fill-rule="evenodd">
        <g id="Artboard-Copy-3" fill="#333F48" fill-rule="nonzero">
            <g id="icon_Journey" transform="translate(1.000000, 1.000000)">
                <path d="M56.6890909,28.4170909 C56.6890909,44.004 44.1698182,56.6061818 28.5,56.6061818 C12.996,56.6061818 0.310909091,44.004 0.310909091,28.4170909 C0.310909091,12.8301818 12.996,0.228 28.5,0.228 C44.1698182,0.228 56.6890909,12.8301818 56.6890909,28.4170909 Z M39.6098182,15.4003636 C39.444,15.3174545 39.1952727,15.2345455 39.0294545,15.2345455 C38.4490909,15.1516364 37.8687273,14.9029091 37.1225455,14.82 C36.4592727,14.7370909 35.6301818,14.7370909 34.8010909,14.7370909 C31.7334545,14.7370909 29.3290909,15.4003636 27.588,16.7269091 C25.9298182,18.0534545 24.852,20.1261818 24.2716364,22.8621818 L23.6083636,26.5930909 L20.9552727,26.9247273 C20.6236364,27.0076364 20.3749091,27.0905455 20.292,27.2563636 C20.1261818,27.3392727 20.0432727,27.5050909 19.9603636,27.8367273 L19.4629091,30.4069091 L23.028,30.4069091 L21.7014545,38.0345455 L18.3021818,38.0345455 L17.556,42.0141818 L36.2105455,42.0141818 L36.8738182,38.0345455 L27.0076364,38.0345455 L28.3341818,30.4069091 L35.8789091,30.4069091 L36.5421818,26.4272727 L28.9974545,26.4272727 L29.5778182,23.4425455 C29.8265455,21.8672727 30.4898182,20.7065455 31.4018182,19.9603636 C32.3138182,19.1312727 33.6403636,18.7996364 35.3814545,18.7996364 C36.0447273,18.7996364 36.708,18.8825455 37.4541818,18.9654545 C38.1174545,19.0483636 38.9465455,19.2141818 39.6098182,19.38 L39.6098182,15.4003636 Z" id="Payments"></path>
            </g>
        </g>
    </g>
</svg>