<?xml version="1.0" encoding="UTF-8"?>
<svg width="60px" height="60px" viewBox="0 0 60 60" version="1.1" xmlns="http://www.w3.org/2000/svg" xmlns:xlink="http://www.w3.org/1999/xlink">
    <!-- Generator: Sketch 48.2 (47327) - http://www.bohemiancoding.com/sketch -->
    <title>Artboard Copy 4</title>
    <desc>Created with Sketch.</desc>
    <defs>
        <path d="M47.73721,40.6023774 C50.0343067,40.9201409 51.4844723,41.0790203 52.0877502,41.0790203 C53.1086821,41.2605995 53.7583562,41.896117 54.0367922,42.985592 C54.1296042,42.985592 54.1180029,44.0410051 54.0019879,46.151863 C53.8859729,48.2627208 53.6075411,50.2260162 53.1666842,52.0418079 C52.7258272,53.8575996 52.0645517,54.8789671 51.1828378,55.105941 C50.2547179,55.332915 49.2802067,55.4464003 48.2592748,55.4464003 C45.9389751,55.4464003 43.2822718,54.9584136 40.2890852,53.9824255 C37.2958985,53.0064375 34.1867436,51.4970833 30.961527,49.4543176 C27.7363104,47.411552 24.7083647,44.8921788 21.877599,41.8961225 C17.7010595,37.4474328 14.5106953,32.6923996 12.3064106,27.6308803 C10.1021258,22.5693609 9,18.1093894 9,14.2508321 C9,13.1159623 9.11601325,12.0492006 9.34804322,11.0505152 C9.58007319,10.1426193 10.5429831,9.46170767 12.2368019,9.00775975 C13.9306207,8.55381182 15.76363,8.2587501 17.7358847,8.12256572 C19.7081395,7.98638134 20.7406574,7.96368429 20.8334694,8.05447387 C21.8544012,8.23605304 22.4344675,8.89426766 22.5736854,10.0291375 C22.5736854,10.1653218 22.6896987,11.4704026 22.9217287,13.9444187 C23.1537586,16.4184349 23.594609,18.4952155 24.2442929,20.1748229 C24.2906989,20.4017968 24.2906989,20.6741615 24.2442929,20.991925 C24.2442929,21.4004782 23.9890637,21.8998134 23.4785978,22.4899457 L18.4667755,27.8011099 C18.2811515,27.982689 18.2347462,28.2096596 18.3275582,28.4820284 L19.3020792,30.0481409 C19.8125451,30.9560367 20.2998008,31.7277366 20.7638607,32.3632637 C22.2024465,34.5876085 23.7338214,36.5395553 25.3580312,38.2191627 C27.3534889,40.2619283 29.1864982,41.8734193 30.857114,43.0536839 C31.1819559,43.3260526 31.970846,43.8480849 33.2238079,44.6197964 L34.6855894,45.5730823 C34.8712133,45.7092667 35.0800372,45.6638725 35.3120672,45.4368986 C36.889871,43.6665017 38.537259,41.9188284 40.2542808,40.1938263 C40.7183408,39.6490888 41.2055964,39.354027 41.7160623,39.3086322 C42.1337163,39.3086322 42.3889454,39.3313293 42.4817574,39.3767241 C43.6883133,39.8760668 45.4401133,40.2846138 47.73721,40.6023774 Z" id="path-1"></path>
    </defs>
    <g id="Page-1" stroke="none" stroke-width="1" fill="none" fill-rule="evenodd">
        <g id="Artboard-Copy-4">
            <g id="Atoms-/-Icons-/-Phone" transform="translate(-2.000000, -2.000000)">
                <mask id="mask-2" fill="white">
                    <use xlink:href="#path-1"></use>
                </mask>
                <use id="icon-glyph-33" fill="#333F48" fill-rule="evenodd" xlink:href="#path-1"></use>
                <g id="Atoms/Colour-palette-/-Primary-colours-/-BG-Slate" mask="url(#mask-2)" fill="#333F48" fill-rule="evenodd">
                    <rect id="Rectangle-11" x="0" y="0" width="64" height="64"></rect>
                </g>
            </g>
        </g>
    </g>
</svg>